<svg xmlns="http://www.w3.org/2000/svg" width="40" height="40" viewBox="0 0 40 40">
  <g id="Grupo_1505" data-name="Grupo 1505" transform="translate(-840 -3740)">
    <g id="Retângulo_1038" data-name="Retângulo 1038" transform="translate(840 3740)" fill="#5e8402" stroke="#5e8402" stroke-width="3">
      <path d="M2,0H20A20,20,0,0,1,40,20V38a2,2,0,0,1-2,2H20A20,20,0,0,1,0,20V2A2,2,0,0,1,2,0Z" stroke="none"/>
      <path d="M2,1.5H20A18.5,18.5,0,0,1,38.5,20V38a.5.5,0,0,1-.5.5H20A18.5,18.5,0,0,1,1.5,20V2A.5.5,0,0,1,2,1.5Z" fill="none"/>
    </g>
    <g id="Grupo_27" data-name="Grupo 27" transform="translate(850 3750)">
      <path id="Caminho_32" data-name="Caminho 32" d="M944.611,519.881v3.592a.853.853,0,0,1-.819.882c-1.615,0-2.494,1.782-2.616,5.3h2.616a.853.853,0,0,1,.819.882v7.581a.853.853,0,0,1-.819.882H936.82a.852.852,0,0,1-.82-.882v-7.581a20.825,20.825,0,0,1,.469-4.6,11.477,11.477,0,0,1,1.455-3.641,7.31,7.31,0,0,1,2.474-2.431,6.631,6.631,0,0,1,3.395-.865.853.853,0,0,1,.819.882Zm10.569,4.473a.853.853,0,0,0,.82-.882v-3.592a.853.853,0,0,0-.82-.882,6.637,6.637,0,0,0-3.395.865,7.309,7.309,0,0,0-2.474,2.431,11.5,11.5,0,0,0-1.455,3.641,20.866,20.866,0,0,0-.469,4.6v7.581a.853.853,0,0,0,.82.882h6.971a.852.852,0,0,0,.82-.882v-7.581a.851.851,0,0,0-.82-.882H952.6c.12-3.518.985-5.3,2.579-5.3Zm0,0" transform="translate(-936 -519)" fill="#fff"/>
    </g>
  </g>
</svg>
