<svg xmlns="http://www.w3.org/2000/svg" xmlns:xlink="http://www.w3.org/1999/xlink" width="1920" height="280" viewBox="0 0 1920 280">
  <defs>
    <clipPath id="clip-path">
      <rect id="rectangle-15" width="1920" height="280" transform="translate(100 3980)" fill="#014268"/>
    </clipPath>
  </defs>
  <g id="Grupo_de_máscara_31" data-name="Grupo de máscara 31" transform="translate(-100 -3980)" clip-path="url(#clip-path)">
    <g id="Grupo_2035" data-name="Grupo 2035">
      <g id="Grupo_2002" data-name="Grupo 2002" transform="translate(-126.037 3338)">
        <path id="Caminho_3367" data-name="Caminho 3367" d="M-849.314,1723.386c-1.639-11.712-2.824-21.929-3.638-30.883-1.274-14.1-2.007-26.187-1.656-37.939A176.731,176.731,0,0,1-849.869,1619c6.666-28.68,9.892-55.791,9.107-81.014-.227-7.318-.834-14.455-1.751-21.442h137.506v139.683A1012.754,1012.754,0,0,0-847.477,1735.8C-848.129,1731.57-848.753,1727.406-849.314,1723.386Z" transform="translate(3101.377 -1516.545)" fill="#2f4201"/>
        <path id="Caminho_3368" data-name="Caminho 3368" d="M-1406.567,1670c-110.238-11.482-198.458-90.828-229.513-122.312H-1334.7c14.188,42.842,35.325,88.234,66.821,129.705C-1314.212,1674.5-1362.445,1674.595-1406.567,1670Z" transform="translate(1636.08 -1547.688)" fill="#2f4201"/>
        <path id="Caminho_3369" data-name="Caminho 3369" d="M-1011.192,1114.516c33.652,118.3,41.263,275.645-88.853,376.919-47.273,36.8-82.1,55.911-111.143,66.991,3.652-64.127,14.389-131.14,31.415-200.546C-1152.4,1246.3-1087.643,1169.432-1011.192,1114.516Z" transform="translate(2432.858 -183.575)" fill="#2f4201"/>
        <path id="Caminho_3370" data-name="Caminho 3370" d="M-1508.031,1501.283c98.6,6.159,188.6,25.9,212.1,133.437-32.461-4.88-68.646-16.73-112.127-43.064A357.48,357.48,0,0,1-1508.031,1501.283Z" transform="translate(1876.204 -1371.578)" fill="#2f4201"/>
        <path id="Caminho_3371" data-name="Caminho 3371" d="M-1432.828,1039.184a116.412,116.412,0,0,1,42.652,12.594q20.592,10.469,40.677,29.434a135.07,135.07,0,0,0,18.961,15.47c6.234,4.089,13.135,7.629,22.771,12.083,5.311,2.456,11.326,5.067,18.19,7.847q10.783,4.37,22.76,8.693,30.322,10.9,50.781,27.509a111.516,111.516,0,0,1,31.515,39.852v.035c6.214,13.589,9.389,28.677,9.9,45.047.494,15.994-1.55,33.183-5.777,51.367a111.892,111.892,0,0,0-3,22.55,200.276,200.276,0,0,0,1.047,24.056c.518,5.676,1.268,12.155,2.306,19.582,1.046,7.471,2.329,15.5,3.893,24.165q5.736,31.827,1.515,57.924a111.4,111.4,0,0,1-19,47.38,116.927,116.927,0,0,1-33.229,31.021q-20.053,12.72-47.443,20.534c-11.948,3.411-23.1,9.073-33.673,15.9-121.472-25.474-228.035-74.447-263.464-188.376-33.253-106.94,27.081-221.255,87.484-316.957.308-.121.618-.265.926-.383A111.4,111.4,0,0,1-1432.828,1039.184Z" transform="translate(1739.531 40.469)" fill="#2f4201"/>
        <path id="Caminho_3372" data-name="Caminho 3372" d="M-652.053,1385.286c1.259,8.17,2.674,16.7,4.3,25.7q9.045,50.2,2.39,91.352-6.828,42.119-29.968,74.725-20.247,28.519-52.409,48.921-31.62,20.061-74.82,32.384c-21.989,6.277-42.278,17.368-61.392,30.6-19.6,13.564-38.3,29.632-56.325,45.131a317.839,317.839,0,0,1-38.615,28.625c47.7-79.663,97.364-170.72,157.091-244.339C-758.242,1464.693-704.022,1420.3-652.053,1385.286Z" transform="translate(2905.954 -1166.032)" fill="#2f4201"/>
        <path id="Caminho_3373" data-name="Caminho 3373" d="M-201.942,1783.675c-6.205,2.611-13.233,5.227-20.919,7.888q-6.9,2.385-14.507,4.836c-6.13,1.975-12.6,4-19.363,6.07-4.181,1.282-8.454,2.585-12.854,3.917-3.183.963-6.435,1.944-9.725,2.936q-5.322,1.6-10.829,3.269h-1.8v.547q-6.561,1.984-13.339,4.06-8.6,2.631-17.518,5.42-6.043,1.9-12.229,3.879c-15.686,5.023-31.97,10.469-48.628,16.448q-12.844,4.61-25.94,9.656c-12.9,4.989-25.943,10.334-39.02,16.068q-3.869,1.7-7.738,3.439c-2.536,1.139-5.069,2.283-7.6,3.456q-3.951,1.825-7.9,3.7-9.152,4.352-18.279,9.006-4.012,2.041-8.011,4.141-7.837,4.11-15.623,8.44c-2.568,1.432-5.121,2.9-7.675,4.368a587.325,587.325,0,0,0-49.64,31.906c-4.238-14.9-8.888-29.189-13.73-42.664q-1.048-2.912-2.1-5.771c-2.832-7.657-5.714-15.044-8.607-22.1-.828-2.021-1.72-3.977-2.651-5.892a94.862,94.862,0,0,0-7.675-13.026c-9.052-12.885-20.98-22.843-35.288-30.434a135.14,135.14,0,0,0-13.624-6.263,185.838,185.838,0,0,0-29.606-8.759q-7.237-1.544-14.86-2.723c-11.5-1.759-23.645-2.907-36.332-3.568-25.112-1.308-52.339-.713-80.83.817q-8.817.47-17.788,1.055-5.094.327-10.237.687-4.607.32-9.247.658-3.878.281-7.775.575-3.524.267-7.063.538-2.566.2-5.147.4c-30.017,2.347-60.753,4.989-91.337,6.933q-9.347.591-18.665,1.093-8.182.431-16.327.768-4.072.168-8.123.311-5.948.207-11.861.357c-11.626.282-23.148.374-34.518.207-17.247-.248-32.884-1.219-47.132-2.838-91.8-10.415-125.849-47.682-159.524-92.114-15.329-20.232-30.589-41.942-51.183-63.287q-3.813-3.951-7.873-7.881c-40-38.606-83.973-55.629-125.67-58.6,52.593-128.823,48.6-246.66,33.33-316.641l-.017-.068c38.859,5.84,72.379,1.685,106.667.394,73.422,97.1,161.668,115.155,233.544,100.714,14.748,13.406,30.273,28.525,46.692,45.611,83.8,87.2,147.013,165.43,204.6,225.6,18.472,19.3,36.372,36.748,54.18,52.023,24.965,21.417,49.766,38.566,75.752,50.643q7.022,3.261,14.174,6.015a209.468,209.468,0,0,0,57.57,13.44,225.947,225.947,0,0,0,32.249.44c4.138-.229,8.313-.543,12.554-.992,1.837-.2,3.695-.434,5.55-.673a319.042,319.042,0,0,0,49.918-10.685h.256v-.078a479.934,479.934,0,0,0,57.159-21.207c9.984-4.394,20.289-9.291,30.862-14.593,2.484-1.248,4.943-2.458,7.462-3.755,83.987-43.268,111.031-99.8,105.982-161.327a184.246,184.246,0,0,1,19.248,15.8q32.841,31.154,66.5,48.147,34.342,17.339,69.44,19.95,39.341,2.938,78.532-12.531A234.439,234.439,0,0,0-45.6,1602.441C-96.653,1687.694-145.456,1759.891-201.942,1783.675Z" transform="translate(1992.746 -1005.874)" fill="#2f4201"/>
      </g>
      <g id="Grupo_2003" data-name="Grupo 2003" transform="translate(-150.333 3338)">
        <path id="Caminho_3374" data-name="Caminho 3374" d="M-1120.614,1639.506c2.433,13.483,4.431,25.991,6.071,37.652-19.786-45.458-30.837-89.106-38.609-129.345h30.213c-.037.236-.092.466-.132.7Q-1129.628,1589.543-1120.614,1639.506Z" transform="translate(2565.994 -1547.813)" fill="#5e8402"/>
        <path id="Caminho_3375" data-name="Caminho 3375" d="M-1390.721,1350.079c44.122,4.595,92.355,4.5,138.691,7.393a357.485,357.485,0,0,0,99.975,90.374c43.48,26.334,79.666,38.184,112.127,43.064l.018.068c15.269,69.981,19.263,187.819-33.33,316.641-42.224-3.008-82.121,8.393-113.2,26.446-109.344,63.511-89.1,153.477-81.072,235.066-87.912,75.338-206.334,145.894-364.75,203.981-4.124,1.512-8.2,2.921-12.267,4.29V1227.767h24.3C-1589.179,1259.251-1500.958,1338.6-1390.721,1350.079Z" transform="translate(1644.529 -1227.767)" fill="#5e8402"/>
        <path id="Caminho_3376" data-name="Caminho 3376" d="M-1368.369,1729.657q-5.448-7.2-10.786-14.984c-49.456-72.27-36.763-166.83-8.164-248.552h459.878c-16.937,86.348-61.84,286.718-120.713,327.613a234.956,234.956,0,0,1-86.67,36.637C-1240.255,1734.56-1305.6,1727.293-1368.369,1729.657Z" transform="translate(2079.574 -1466.121)" fill="#5e8402"/>
        <path id="Caminho_3377" data-name="Caminho 3377" d="M-1487.064,1331.09c35.429,113.93,141.992,162.9,263.464,188.376-1.765,1.142-3.52,2.3-5.253,3.505-12.428,8.6-24.283,18.788-35.717,28.617q-24.232,20.816-48.61,30.44a111.638,111.638,0,0,1-49.8,7.948,116.357,116.357,0,0,1-44.03-12.652q-21.342-10.77-42.161-30.529c-10.918-10.351-24.18-18.446-38.273-25.238-14.541-7.008-29.873-12.615-44.5-17.871q-30.327-10.9-50.787-27.51a111.48,111.48,0,0,1-31.518-39.849,115.914,115.914,0,0,1-10.314-42.382q-1.332-22.666,4.676-48.93c2.317-10.13,3.68-17.675,4.2-25.287.535-7.718.247-15.64-.734-26.46-.518-5.682-1.268-12.158-2.306-19.579-1.044-7.474-2.326-15.5-3.888-24.157q-5.711-31.69-1.559-57.694a111.37,111.37,0,0,1,18.734-47.2,116.316,116.316,0,0,1,32.26-30.592q19.466-12.655,45.873-20.548c15.13-4.521,28.723-11.609,41.539-20.109,13.092-8.684,25.5-18.921,37.907-29.43q24.128-20.4,48.271-29.822C-1459.983,1109.835-1520.317,1224.15-1487.064,1331.09Z" transform="translate(1679.44 73.23)" fill="#5e8402"/>
        <path id="Caminho_3378" data-name="Caminho 3378" d="M-996.586,1766.534q-47.825-17.188-80.094-43.386-32.961-26.767-49.708-62.843-14.13-30.448-16.269-66.841-2.1-35.744,7.375-77.166c3.655-15.977,5.8-27.875,6.634-39.881.84-12.172.388-24.663-1.159-41.732-.817-8.957-2-19.171-3.637-30.88-.02-.144-.043-.3-.063-.443.233.532.443,1.061.676,1.593,40.084,91.222,235.465,266.754,247.534,413.772a273.983,273.983,0,0,0-41.108-24C-949.342,1783.667-973.522,1774.824-996.586,1766.534Z" transform="translate(2584.947 -1274.017)" fill="#5e8402"/>
        <path id="Caminho_3379" data-name="Caminho 3379" d="M-346.715,1715.121c-102.445,154.264,85.132,394.786,27.622,541.4-85.894,218.965-114.706,214.74-270.44,312.594h-555.72c-52.487-98.778-72.1-212.124-65.026-336.33,29.04-11.077,63.87-30.187,111.143-66.972,130.116-101.247,122.505-258.547,88.853-376.814a587.353,587.353,0,0,1,49.639-31.9c2.554-1.472,5.107-2.935,7.675-4.367q7.777-4.343,15.623-8.437,4-2.1,8.011-4.14,9.122-4.644,18.279-9,3.947-1.875,7.9-3.7c2.533-1.173,5.067-2.317,7.6-3.455q3.869-1.742,7.738-3.438c13.078-5.732,26.118-11.076,39.02-16.063q13.087-5.062,25.94-9.653c16.658-5.977,32.942-11.421,48.628-16.443q6.176-1.974,12.229-3.878,8.92-2.795,17.518-5.419,6.785-2.079,13.339-4.059c.6-.184,1.2-.363,1.8-.546q5.5-1.66,10.829-3.269c3.289-.992,6.541-1.972,9.725-2.935,4.4-1.331,8.672-2.633,12.854-3.915,6.76-2.072,13.233-4.094,19.364-6.068q7.613-2.454,14.507-4.835c7.686-2.66,14.714-5.275,20.919-7.886,56.486-23.776,105.289-95.954,156.338-181.183a317.835,317.835,0,0,0,38.615-28.618c18.029-15.495,36.729-31.558,56.325-45.118,19.114-13.229,39.4-24.317,61.392-30.592q43.2-12.324,74.82-32.375,32.164-20.405,52.409-48.907,23.149-32.608,29.968-74.7,6.668-41.146-2.389-91.327c-1.625-9-3.039-17.524-4.3-25.691A1012.884,1012.884,0,0,1-35.5,997.519v598.063C-107.658,1584.934-258.13,1581.728-346.715,1715.121Z" transform="translate(2456.165 -857.836)" fill="#5e8402"/>
        <path id="Caminho_3380" data-name="Caminho 3380" d="M-549.58,1622.623c-17.026,69.406-27.763,136.419-31.415,200.546-68.23,26.029-104.458,7.635-194.829,69.658-128.828,88.418-182.507,197.095-373.066,177.588-71.4-7.307-149.546-14.136-222.333-29.4,10.573-6.827,21.724-12.489,33.672-15.9q27.393-7.816,47.443-20.534a116.912,116.912,0,0,0,33.229-31.02,111.4,111.4,0,0,0,19-47.38q4.227-26.1-1.515-57.924c-1.564-8.661-2.847-16.695-3.893-24.166-1.038-7.427-1.789-13.906-2.306-19.583a200.323,200.323,0,0,1-1.047-24.056,111.914,111.914,0,0,1,3-22.55c4.227-18.185,6.271-35.375,5.777-51.367-.512-16.37-3.686-31.458-9.9-45.048v-.034a111.509,111.509,0,0,0-31.515-39.851q-20.458-16.614-50.781-27.51-11.99-4.313-22.759-8.693c-6.864-2.78-12.879-5.391-18.19-7.847-9.636-4.454-16.537-7.994-22.771-12.083a135.01,135.01,0,0,1-18.961-15.47q-20.092-18.961-40.677-29.434a116.414,116.414,0,0,0-42.652-12.594,111.4,111.4,0,0,0-50.212,7.327c-.308.118-.618.262-.926.383,42.505-67.353,85.048-125.489,95.026-165.332,6.263-25.011,4.943-52.547,2.13-81.1,98.915-84.767,159.191-175.581,194.272-261.512,41.7,2.97,85.667,19.993,125.671,58.6q4.072,3.929,7.873,7.881c20.594,21.345,35.855,43.055,51.184,63.287,33.675,44.432,67.721,81.7,159.524,92.114,14.248,1.619,29.885,2.59,47.132,2.838,11.369.167,22.892.075,34.517-.207q5.914-.147,11.861-.357,4.054-.142,8.123-.311,8.143-.337,16.327-.768,9.317-.5,18.665-1.093c30.584-1.944,61.32-4.586,91.337-6.933q2.579-.2,5.147-.4,3.542-.272,7.063-.538,3.9-.294,7.775-.575,4.64-.341,9.247-.659,5.142-.358,10.237-.687,8.967-.579,17.788-1.055c28.49-1.53,55.718-2.125,80.83-.817,12.687.661,24.836,1.809,36.332,3.568q7.634,1.169,14.86,2.723a185.829,185.829,0,0,1,29.606,8.759,135.064,135.064,0,0,1,13.624,6.263c14.309,7.592,26.236,17.549,35.288,30.434a94.834,94.834,0,0,1,7.675,13.026c.931,1.915,1.823,3.871,2.651,5.892,2.893,7.059,5.774,14.446,8.607,22.1q1.057,2.86,2.1,5.771c4.842,13.474,9.492,27.76,13.73,42.664C-457.449,1434.175-522.211,1511.042-549.58,1622.623Z" transform="translate(1827.064 -448.318)" fill="#5e8402"/>
      </g>
      <g id="Grupo_2004" data-name="Grupo 2004" transform="translate(-150.333 3338)">
        <path id="Caminho_3381" data-name="Caminho 3381" d="M-1267.511,997.519c2.812,28.556,4.132,56.093-2.131,81.1-9.978,39.843-52.521,97.98-95.026,165.332q-24.151,9.441-48.271,29.822c-12.41,10.51-24.815,20.746-37.907,29.43-12.817,8.5-26.409,15.588-41.54,20.108q-26.41,7.9-45.873,20.549a116.31,116.31,0,0,0-32.26,30.592,111.369,111.369,0,0,0-18.734,47.2q-4.158,26.013,1.559,57.694c1.562,8.658,2.844,16.684,3.888,24.157,1.038,7.421,1.788,13.9,2.306,19.579.98,10.821,1.268,18.743.733,26.46-.524,7.611-1.887,15.157-4.2,25.287q-6.008,26.263-4.676,48.929a115.913,115.913,0,0,0,10.314,42.382A111.482,111.482,0,0,0-1547.814,1706q20.462,16.615,50.787,27.51c14.625,5.257,29.957,10.864,44.5,17.871,14.093,6.792,27.355,14.887,38.273,25.238q20.82,19.755,42.16,30.529a116.361,116.361,0,0,0,44.03,12.652,111.64,111.64,0,0,0,49.8-7.948q24.387-9.619,48.61-30.44c11.433-9.828,23.289-20.016,35.717-28.617,1.734-1.2,3.488-2.364,5.253-3.505,72.788,15.266,150.929,22.095,222.333,29.4C-775.8,1798.2-722.117,1689.521-593.289,1601.1c90.371-62.024,126.6-43.63,194.829-69.658-7.074,124.241,12.54,237.619,65.027,336.424h-1311.1V1205.791c4.063-1.369,8.144-2.778,12.267-4.29C-1473.845,1143.413-1355.424,1072.857-1267.511,997.519Z" transform="translate(1644.529 -156.592)" fill="#b9d536"/>
        <path id="Caminho_3382" data-name="Caminho 3382" d="M-1397.174,1464.939c62.766-2.364,128.114,4.9,233.544,100.714C-1235.506,1580.094-1323.751,1562.041-1397.174,1464.939Z" transform="translate(2108.382 -1201.474)" fill="#b9d536"/>
        <path id="Caminho_3383" data-name="Caminho 3383" d="M-724.873,1663.237c57.51-146.65-130.067-387.24-27.622-541.547C-663.91,988.26-513.438,991.467-441.28,1002.118v973.8H-995.313C-839.579,1878.036-810.767,1882.263-724.873,1663.237Z" transform="translate(2861.945 -264.642)" fill="#b9d536"/>
        <path id="Caminho_3384" data-name="Caminho 3384" d="M-1508.946,1562.188c-8.031-81.589-28.272-171.555,81.072-235.066,31.078-18.052,70.976-29.454,113.2-26.446C-1349.755,1386.608-1410.031,1477.422-1508.946,1562.188Z" transform="translate(1885.932 -721)" fill="#b9d536"/>
        <path id="Caminho_3385" data-name="Caminho 3385" d="M-1156.466,1748.779q5.335,7.794,10.786,14.984c-34.288,1.291-67.807,5.447-106.667-.393-23.5-107.536-113.5-127.279-212.1-133.438-31.5-41.471-52.633-86.863-66.821-129.7h366.639C-1193.229,1581.949-1205.922,1676.51-1156.466,1748.779Z" transform="translate(1856.948 -1500.227)" fill="#b9d536"/>
        <path id="Caminho_3386" data-name="Caminho 3386" d="M-307.937,1476.481a176.723,176.723,0,0,0-4.739,35.561c-.351,11.752.383,23.841,1.656,37.939.814,8.954,2,19.171,3.638,30.883.561,4.02,1.185,8.184,1.837,12.413-51.969,35.009-106.189,79.407-149.75,133.1-59.727,73.619-109.389,164.677-157.091,244.339a234.4,234.4,0,0,1-38.052,19.384q-39.2,15.467-78.532,12.531-35.1-2.613-69.441-19.95-33.661-16.989-66.5-48.147a184.262,184.262,0,0,0-19.248-15.8c-12.068-147.018-207.449-322.55-247.534-413.772-.233-.532-.443-1.061-.676-1.593-1.639-11.66-3.638-24.169-6.07-37.652q-9-49.978-2.458-90.993c.04-.235.095-.466.132-.7h840.179c.917,6.988,1.524,14.125,1.751,21.443C-298.045,1420.69-301.272,1447.8-307.937,1476.481Z" transform="translate(2583.74 -1374.024)" fill="#b9d536"/>
        <path id="Caminho_3387" data-name="Caminho 3387" d="M-666.979,2035.088c-2.519,1.3-4.978,2.508-7.462,3.755-10.573,5.3-20.879,10.2-30.862,14.593a479.916,479.916,0,0,1-57.159,21.207c-.086.026-.173.055-.256.078a319.064,319.064,0,0,1-49.918,10.685h-5.55v.673c-4.241.449-8.417.762-12.554.992a226.015,226.015,0,0,1-32.248-.44,209.475,209.475,0,0,1-57.57-13.44q-7.152-2.765-14.174-6.015c-25.986-12.077-50.787-29.227-75.752-50.643-17.808-15.275-35.708-32.723-54.18-52.023-57.585-60.167-120.8-138.4-204.6-225.6-16.419-17.087-31.944-32.206-46.692-45.611a234.958,234.958,0,0,0,86.67-36.636c58.873-40.9,103.777-241.265,120.713-327.613h260.756c7.772,40.24,18.823,83.887,38.609,129.346.02.144.043.3.063.442,1.636,11.709,2.821,21.923,3.637,30.88,1.547,17.069,2,29.56,1.159,41.732-.831,12.005-2.979,23.9-6.634,39.881q-9.471,41.424-7.375,77.166,2.144,36.4,16.269,66.841,16.749,36.085,49.709,62.844,32.272,26.208,80.094,43.385c23.064,8.29,47.244,17.132,70.179,28.188a274,274,0,0,1,41.108,24C-555.948,1935.288-582.992,1991.821-666.979,2035.088Z" transform="translate(2260.663 -1329.051)" fill="#b9d536"/>
      </g>
    </g>
  </g>
</svg>
