<svg xmlns="http://www.w3.org/2000/svg" width="326.97" height="119.047" viewBox="0 0 326.97 119.047">
  <g id="Grupo_2012" data-name="Grupo 2012" transform="translate(-279.843 -164.841)">
    <path id="Caminho_33" data-name="Caminho 33" d="M306.21,199.046c.094-.112.027-.035,0,0Z" transform="translate(44.069 57.077)" fill="#fff"/>
    <path id="Caminho_34" data-name="Caminho 34" d="M296.783,168.55c9.783,9.551,13.732,25.382,10.029,38.751a12.736,12.736,0,0,0,.906,10.734c1.573,2.722,4.667,5.375,7.841,5.939.379.1.761.176,1.151.238a21.247,21.247,0,0,1,5.752,2.289,25.29,25.29,0,0,1,5.1,4.037,11.444,11.444,0,0,0,.946,1.023,12.66,12.66,0,0,0,17.605,0,11.435,11.435,0,0,0,.946-1.023,25.366,25.366,0,0,1,5.1-4.037,21.248,21.248,0,0,1,5.752-2.289c.39-.061.772-.142,1.151-.238,3.174-.564,6.267-3.217,7.841-5.939a12.736,12.736,0,0,0,.906-10.734c-3.708-13.4.265-29.264,10.09-38.809a20.337,20.337,0,0,1,6.51,6.738l.005.011a19.081,19.081,0,0,1,.948,1.881,19.457,19.457,0,0,1,.721,1.934,18.8,18.8,0,0,1,.278,10.136l0,0v.013l-.072.27v.008l-.077.275c-.128.46-.283.93-.46,1.405l-.051.171,0,.005c-.128.465-.254.954-.379,1.461-.128.529-.243,1.039-.345,1.523a41.682,41.682,0,0,0-.93,8.244v.008h.011a37.883,37.883,0,0,0,.4,5.5c.043.283.091.574.142.874a36.876,36.876,0,0,0,1.028,4.371l.051.155,0,0h0l.085.23c.08.219.056.142.083.224v.008c.15.422.275.82.379,1.191l.056.163,0,0a11.493,11.493,0,0,1,.494,1.841,14.6,14.6,0,0,1,.222,2.014,20.181,20.181,0,0,1-2.583,10.462l0,.005a19.232,19.232,0,0,1-2.469,3.358,18.756,18.756,0,0,1-8.637,5.306l-.011.005-.275.075v0l-.278.072q-.721.18-1.451.3l-.179.043-.005,0c-.51.131-1,.264-1.453.4-.569.168-1.069.323-1.493.462a41.491,41.491,0,0,0-7.6,3.326l0,0q-.749.433-1.338.807c-.366.232-.8.518-1.285.858a37.141,37.141,0,0,0-5.9,5.076l-.067.077h0l-.043.043-.15.19-.166.2,0,0c-.216.251-.438.494-.663.732l-.419.419,0,0,.005,0a18.915,18.915,0,0,1-1.491,1.322,18.526,18.526,0,0,1-11.72,4.1h0v.008a18.781,18.781,0,0,1-7.168-1.416c-.3-.126-.655-.289-1.055-.484a18.862,18.862,0,0,1-4.841-3.39l-.019-.016c-.23-.219-.462-.46-.695-.711s-.449-.5-.681-.785l-.083-.1-.053-.053-.005,0c-.35-.355-.705-.708-1.063-1.047q-.481-.457-1.149-1.055a41.533,41.533,0,0,0-6.676-4.921l0-.005-.005,0H313.8q-.685-.4-1.368-.753-.777-.4-1.387-.692a37.262,37.262,0,0,0-7.347-2.573l-.144-.024v0l-.259-.043v0l-.232-.04h-.011c-.345-.064-.751-.155-1.216-.272l-.16-.035-.008,0a11.445,11.445,0,0,1-1.841-.494,14.3,14.3,0,0,1-1.857-.809,20.145,20.145,0,0,1-7.763-7.464v-.008l-.008-.013-.005,0a18.919,18.919,0,0,1-1.328-15.917l.051-.171,0-.005c.128-.465.254-.954.377-1.459.128-.532.246-1.042.345-1.525a41.46,41.46,0,0,0,.93-8.244h-.008a37.9,37.9,0,0,0-.4-5.5c-.043-.275-.107-.668-.2-1.173-.088-.486-.163-.874-.225-1.159q-.316-1.495-.748-2.92l-.051-.152v-.005l-.008,0-.088-.24h0l-.077-.222h0c-.139-.4-.267-.8-.379-1.2l-.059-.171,0-.005v0a11.825,11.825,0,0,1-.484-1.827,14.215,14.215,0,0,1-.219-2.012,20.144,20.144,0,0,1,2.581-10.464l0-.005a18.275,18.275,0,0,1,2.8-3.692,19.012,19.012,0,0,1,3.77-2.987" transform="translate(12.993 6.102)" fill="#fff"/>
    <path id="Caminho_35" data-name="Caminho 35" d="M350.3,283.888a28.409,28.409,0,0,1-19.8-8.007,26.139,26.139,0,0,1-2.121-2.295,56.828,56.828,0,0,0-11.469-9.081,47.65,47.65,0,0,0-12.933-5.145c-.874-.139-1.734-.318-2.591-.534-7.13-1.269-14.09-7.232-17.627-13.358a28.624,28.624,0,0,1-2.036-24.137,57.033,57.033,0,0,0,2.129-14.474,47.734,47.734,0,0,0-2.017-13.774q-.473-1.234-.828-2.509c-1.731-4.79-1.413-10.665.155-15.861,3.884-12.853,7.988-11.036,19.123-6.39a29.662,29.662,0,0,1,6.03,3.4,23.213,23.213,0,0,0-3.42,2.891,22.588,22.588,0,0,0-1.854,2.156,23.128,23.128,0,0,0-1.592,2.383l0,.008a24.671,24.671,0,0,0-3.16,12.807,19.266,19.266,0,0,0,.289,2.623,16.343,16.343,0,0,0,.633,2.4c.142.5.294.986.462,1.461l.008.008.093.257.008.027.048.126c.256.852.478,1.712.662,2.575.093.438.163.78.206,1.026.043.224.1.569.166,1.034a33.522,33.522,0,0,1,.363,4.878h-.008a37.2,37.2,0,0,1-.828,7.36c-.1.5-.208.967-.31,1.387-.1.4-.2.8-.31,1.2a23.3,23.3,0,0,0,.39,16.972,22.673,22.673,0,0,0,1.28,2.565v.008l.008.013,0,0a24.674,24.674,0,0,0,9.511,9.139,19,19,0,0,0,2.418,1.066,16.08,16.08,0,0,0,2.455.668c.417.1.892.206,1.427.3l0,0,.3.056h.011l.179.029a32.688,32.688,0,0,1,6.441,2.257q.705.332,1.232.606.613.325,1.21.665l0,.005.005,0h.008a37.011,37.011,0,0,1,5.955,4.4c.307.273.657.6,1.045.97.315.3.609.588.887.868.243.291.508.6.8.908s.593.625.916.93a23.16,23.16,0,0,0,5.928,4.157q.561.272,1.312.582a23.028,23.028,0,0,0,8.816,1.742v.008h0a23.039,23.039,0,0,0,12.412-3.617,23.511,23.511,0,0,0,2.012-1.432c.542-.433,1.069-.9,1.584-1.389a2.638,2.638,0,0,0,.63-.628c.329-.342.649-.692.956-1.05l.008-.008.176-.208.008-.019c.064-.078.1-.12.12-.142l.021-.021s-.094.123.043-.045a32.581,32.581,0,0,1,5.111-4.381c.307-.214.692-.467,1.149-.756.435-.278.833-.518,1.189-.724a37.113,37.113,0,0,1,6.788-2.955q.8-.264,1.357-.425c.43-.128.828-.238,1.192-.334.58-.1,1.157-.222,1.728-.366l.337-.091h.008l.345-.094.008-.005v0a23.048,23.048,0,0,0,12.26-8.512,23.6,23.6,0,0,0,1.411-2.159l0-.005a24.675,24.675,0,0,0,3.163-12.807,18.89,18.89,0,0,0-.291-2.626,15.861,15.861,0,0,0-.657-2.474c-.139-.492-.286-.956-.438-1.387h0c-.085-.243-.08-.235-.1-.283l-.008-.016-.061-.163a32.579,32.579,0,0,1-.895-3.815c-.043-.248-.086-.508-.123-.772a33.043,33.043,0,0,1-.363-4.87h.008v-.011a36.988,36.988,0,0,1,.828-7.357q.156-.757.31-1.389c.1-.4.2-.8.31-1.2.2-.54.382-1.1.548-1.686.021-.08.053-.19.094-.337.011-.04.037-.144.088-.345h0v-.005l0,0a23.1,23.1,0,0,0-.35-12.479,22.667,22.667,0,0,0-.887-2.378,23.4,23.4,0,0,0-1.17-2.306l-.005-.011a24.839,24.839,0,0,0-6.828-7.475,29.334,29.334,0,0,1,5.992-3.377c11.132-4.646,15.236-6.462,19.12,6.39,1.568,5.2,1.886,11.071.155,15.861q-.353,1.274-.828,2.509a47.828,47.828,0,0,0-2.02,13.774,57.162,57.162,0,0,0,2.132,14.474,28.633,28.633,0,0,1-2.036,24.137c-3.537,6.126-10.5,12.089-17.627,13.358q-1.282.325-2.591.534a47.65,47.65,0,0,0-12.933,5.145,56.829,56.829,0,0,0-11.469,9.081,26.167,26.167,0,0,1-2.121,2.295,28.414,28.414,0,0,1-19.8,8.007" transform="translate(0)" fill="#fff"/>
    <path id="Caminho_36" data-name="Caminho 36" d="M328.02,196.536H325.4q-8.463,0-11.915,2.3a7.542,7.542,0,0,0-3.452,6.689,4.193,4.193,0,0,0,2.562,4.184,14.286,14.286,0,0,0,5.907,1.149,10.56,10.56,0,0,0,5.7-1.464,13.559,13.559,0,0,0,3.815-3.449Zm2.509,22.059-1.776-4.809a29.521,29.521,0,0,1-2.3,2.038,21.5,21.5,0,0,1-2.928,1.988,20.274,20.274,0,0,1-3.4,1.515,11.7,11.7,0,0,1-3.815.628q-9.2,0-13.9-3.5t-4.7-10.4a18.538,18.538,0,0,1,1.253-6.847,13.175,13.175,0,0,1,4.234-5.541,22.18,22.18,0,0,1,8.049-3.711,50.034,50.034,0,0,1,12.7-1.36h3.973v-2.3a18.637,18.637,0,0,0-.211-2.77,6.041,6.041,0,0,0-.94-2.509,5.332,5.332,0,0,0-2.038-1.777c-2.14-1.114-4.881-.908-7.189-.331-4.656,1.165-8.565,2.108-12.716-.636a7.323,7.323,0,0,1-2.69-7.761c2.664.86,7.04.572,9.935.184,1.715-.227,2.517-.5,4.178-.842a26.639,26.639,0,0,1,12.77.55,16.451,16.451,0,0,1,5.7,2.824,12.977,12.977,0,0,1,3.764,4.755,15.641,15.641,0,0,1,1.36,6.743v19.235a40.537,40.537,0,0,0,.679,6.746q.681,3.919,1.2,7.892Z" transform="translate(29.854 7.487)" fill="#fff"/>
    <path id="Caminho_37" data-name="Caminho 37" d="M502.629,178.6a3.894,3.894,0,0,0-1.042-2.792,3.346,3.346,0,0,0-2.271-.8,3.259,3.259,0,0,0-.935.152,2.365,2.365,0,0,0-.935.553,3.438,3.438,0,0,0-.751,1.087,4.568,4.568,0,0,0-.355,1.8Zm-6.289,2.485a4.541,4.541,0,0,0,1.061,2.591,3,3,0,0,0,2.313.906,7.881,7.881,0,0,0,2.132-.323,12.528,12.528,0,0,0,2.255-.874l1.135,2.669a11.553,11.553,0,0,1-2.792.844,17.381,17.381,0,0,1-2.973.259,7,7,0,0,1-2.976-.582A6.148,6.148,0,0,1,494.379,185a6.488,6.488,0,0,1-1.274-2.316,9.288,9.288,0,0,1-.414-2.792,11.378,11.378,0,0,1,.307-2.562,6.914,6.914,0,0,1,1.074-2.436,6.039,6.039,0,0,1,2.054-1.827,6.555,6.555,0,0,1,3.222-.719,7.883,7.883,0,0,1,3.1.537,4.755,4.755,0,0,1,2.041,1.624,7.243,7.243,0,0,1,1.135,2.73,18.521,18.521,0,0,1,.353,3.85Zm-10.4-3.374c-.184-.329-.377-.655-.582-.983a5.493,5.493,0,0,0-.673-.874,3.028,3.028,0,0,0-.831-.612,2.2,2.2,0,0,0-1.01-.23,3.112,3.112,0,0,0-1.106.2,2.077,2.077,0,0,0-.919.737,4.1,4.1,0,0,0-.631,1.456,9.93,9.93,0,0,0-.227,2.332,10.289,10.289,0,0,0,.214,2.3,3.928,3.928,0,0,0,.628,1.472,2.16,2.16,0,0,0,1.029.767,4.3,4.3,0,0,0,1.41.214,2.911,2.911,0,0,0,2.7-1.961Zm.582,9.048-.55-1.411a2.921,2.921,0,0,1-.446.582,4.264,4.264,0,0,1-.705.582,4.082,4.082,0,0,1-.951.459,3.613,3.613,0,0,1-1.181.184,6.621,6.621,0,0,1-2.96-.6,5.165,5.165,0,0,1-1.948-1.624,6.682,6.682,0,0,1-1.058-2.394,12.491,12.491,0,0,1-.323-2.867,11.241,11.241,0,0,1,.339-2.792,6.9,6.9,0,0,1,1.058-2.33,5.4,5.4,0,0,1,1.809-1.614,5.324,5.324,0,0,1,2.594-.6,3.4,3.4,0,0,1,2.177.705,8.12,8.12,0,0,1,1.5,1.533v-7.975h3.468v15.858c0,.449.011.847.029,1.2s.045.679.077,1,.067.644.107.98.093.711.155,1.119Zm-17.237-6.473h-.767a6.643,6.643,0,0,0-3.5.676,2.209,2.209,0,0,0-1.012,1.964,1.229,1.229,0,0,0,.751,1.226,4.21,4.21,0,0,0,1.734.337,3.113,3.113,0,0,0,1.672-.427,4.034,4.034,0,0,0,1.119-1.012Zm.735,6.473-.521-1.411a8.655,8.655,0,0,1-.673.6,6.483,6.483,0,0,1-.86.582,5.927,5.927,0,0,1-1,.443,3.428,3.428,0,0,1-1.119.184,6.784,6.784,0,0,1-4.079-1.026,3.566,3.566,0,0,1-1.381-3.054,5.431,5.431,0,0,1,.369-2.009A3.868,3.868,0,0,1,462,179.446a6.5,6.5,0,0,1,2.362-1.09,14.732,14.732,0,0,1,3.727-.4h1.165v-.676a5.275,5.275,0,0,0-.061-.812,1.768,1.768,0,0,0-.275-.737,1.588,1.588,0,0,0-.6-.521,2.355,2.355,0,0,0-1.058-.2,10.438,10.438,0,0,0-2.792.366,13.8,13.8,0,0,0-2.33.86l-1.2-2.853a15.9,15.9,0,0,1,3.128-.783,22.507,22.507,0,0,1,3.374-.259,7.729,7.729,0,0,1,2.132.275,4.834,4.834,0,0,1,1.672.828,3.808,3.808,0,0,1,1.1,1.394,4.617,4.617,0,0,1,.4,1.98v5.645a11.784,11.784,0,0,0,.2,1.977q.2,1.15.353,2.316Zm-16.379-9.048c-.184-.329-.377-.655-.582-.983a5.472,5.472,0,0,0-.673-.874,3.026,3.026,0,0,0-.831-.612,2.2,2.2,0,0,0-1.01-.23,3.111,3.111,0,0,0-1.106.2,2.077,2.077,0,0,0-.919.737,4.1,4.1,0,0,0-.63,1.456,9.923,9.923,0,0,0-.227,2.332,10.3,10.3,0,0,0,.214,2.3,3.928,3.928,0,0,0,.628,1.472,2.159,2.159,0,0,0,1.029.767,4.3,4.3,0,0,0,1.41.214,2.911,2.911,0,0,0,2.7-1.961Zm.582,9.048-.55-1.411a2.927,2.927,0,0,1-.446.582,4.113,4.113,0,0,1-1.656,1.042,3.612,3.612,0,0,1-1.181.184,6.621,6.621,0,0,1-2.96-.6,5.164,5.164,0,0,1-1.948-1.624,6.777,6.777,0,0,1-1.058-2.394,12.494,12.494,0,0,1-.323-2.867,11.241,11.241,0,0,1,.339-2.792,6.9,6.9,0,0,1,1.058-2.33,5.4,5.4,0,0,1,1.809-1.614,5.324,5.324,0,0,1,2.594-.6,3.4,3.4,0,0,1,2.177.705,8.121,8.121,0,0,1,1.5,1.533v-7.975h3.468v15.858c0,.449.011.847.029,1.2s.046.679.078,1,.067.644.107.98.093.711.155,1.119Zm-16.962-14.018h3.465V186.76h-3.465Zm-.091-5.827h3.649v3.005h-3.649Zm-3.222,16.01a3.791,3.791,0,0,1-.521,2.054,3.871,3.871,0,0,1-1.381,1.32,6.141,6.141,0,0,1-1.947.689,12.067,12.067,0,0,1-2.191.2,15,15,0,0,1-2.717-.278,16.408,16.408,0,0,1-2.653-.705l1.2-2.851c.387.142.751.286,1.087.427a10.369,10.369,0,0,0,1,.369c.326.1.663.19,1.013.262a5.764,5.764,0,0,0,1.133.107,5.252,5.252,0,0,0,1.274-.123,1.92,1.92,0,0,0,.735-.337.975.975,0,0,0,.339-.508,2.356,2.356,0,0,0,.075-.6,1.092,1.092,0,0,0-.812-1.01q-.814-.341-1.916-.676-.829-.244-1.688-.553a5.854,5.854,0,0,1-1.565-.842,3.978,3.978,0,0,1-1.592-3.39,3.772,3.772,0,0,1,.521-2.07,3.7,3.7,0,0,1,1.365-1.274,6.179,6.179,0,0,1,1.915-.644,12.673,12.673,0,0,1,2.148-.184,12.271,12.271,0,0,1,2.161.214,22.732,22.732,0,0,1,2.656.676l-1.2,2.853c-.35-.163-.665-.313-.951-.443a8.3,8.3,0,0,0-.844-.339,6.1,6.1,0,0,0-.844-.214,5.441,5.441,0,0,0-.951-.077,3.988,3.988,0,0,0-1.793.323,1.124,1.124,0,0,0-.63,1.087,1.109,1.109,0,0,0,.767,1.045,18.289,18.289,0,0,0,1.841.673q.829.244,1.7.569a6.243,6.243,0,0,1,1.6.858,4.478,4.478,0,0,1,1.194,1.349,3.987,3.987,0,0,1,.475,2.041m-14.17-7.085a6.36,6.36,0,0,0-.922-.585,2.314,2.314,0,0,0-1.1-.275,1.608,1.608,0,0,0-1.087.414,4.245,4.245,0,0,0-.828.983,7.374,7.374,0,0,0-.585,1.133c-.152.379-.27.671-.353.876v8.373h-3.465V175.871a9.416,9.416,0,0,0-.155-1.825c-.1-.521-.174-.956-.214-1.3h3.19l.553,2.394a7.215,7.215,0,0,1,.537-.815,6.907,6.907,0,0,1,.828-.919,5.673,5.673,0,0,1,1.026-.767,2.193,2.193,0,0,1,1.106-.323,5.412,5.412,0,0,1,1.472.168,6.165,6.165,0,0,1,1.2.508Zm-15.091,2.76a3.894,3.894,0,0,0-1.042-2.792,3.346,3.346,0,0,0-2.271-.8,3.258,3.258,0,0,0-.935.152,2.375,2.375,0,0,0-.938.553,3.484,3.484,0,0,0-.751,1.087,4.621,4.621,0,0,0-.353,1.8Zm-6.289,2.485a4.542,4.542,0,0,0,1.061,2.591,3,3,0,0,0,2.314.906,7.882,7.882,0,0,0,2.132-.323,12.6,12.6,0,0,0,2.255-.874l1.136,2.669a11.554,11.554,0,0,1-2.792.844,17.388,17.388,0,0,1-2.976.259,7,7,0,0,1-2.973-.582A6.18,6.18,0,0,1,396.438,185a6.483,6.483,0,0,1-1.272-2.316,9.288,9.288,0,0,1-.414-2.792,11.375,11.375,0,0,1,.307-2.562,6.919,6.919,0,0,1,1.074-2.436,6.041,6.041,0,0,1,2.055-1.827,6.548,6.548,0,0,1,3.222-.719,7.892,7.892,0,0,1,3.1.537,4.77,4.77,0,0,1,2.041,1.624,7.238,7.238,0,0,1,1.133,2.73,18.517,18.517,0,0,1,.353,3.85ZM387.27,186.76h-3.406l-5.429-14.018h3.711l3.529,9.938,3.4-9.938h3.62Zm-15.46-14.018h3.465V186.76h-3.465Zm-.093-5.827h3.649v3.005h-3.649Zm-7.451,19.844v-8.987c0-.347-.016-.689-.048-1.029a2.219,2.219,0,0,0-.259-.89,1.648,1.648,0,0,0-.66-.628,2.527,2.527,0,0,0-1.213-.246,2.155,2.155,0,0,0-1,.23,3.605,3.605,0,0,0-.828.6,4.681,4.681,0,0,0-.689.844,9.744,9.744,0,0,0-.553.964v9.142h-3.465V175.719a7.777,7.777,0,0,0-.139-1.566q-.136-.673-.23-1.411h3.19l.553,1.841c.142-.144.326-.342.55-.6a6.411,6.411,0,0,1,.8-.751,5.03,5.03,0,0,1,1.058-.644,3.142,3.142,0,0,1,1.333-.278,6.331,6.331,0,0,1,2.517.43,3.793,3.793,0,0,1,1.549,1.181,4.384,4.384,0,0,1,.78,1.779,10.779,10.779,0,0,1,.216,2.223v8.835Zm-15.583,0-.553-1.841c-.142.163-.321.374-.537.631a6.631,6.631,0,0,1-.751.751,4.087,4.087,0,0,1-1.013.628,3.192,3.192,0,0,1-1.317.262,5.931,5.931,0,0,1-2.426-.43,3.831,3.831,0,0,1-1.517-1.181,4.547,4.547,0,0,1-.8-1.779,10.066,10.066,0,0,1-.232-2.223v-8.835h3.468v8.987a8.331,8.331,0,0,0,.061,1.012,2.777,2.777,0,0,0,.259.89,1.546,1.546,0,0,0,.614.644,2.27,2.27,0,0,0,1.151.246,2.059,2.059,0,0,0,.98-.23,3.16,3.16,0,0,0,.783-.6,4.977,4.977,0,0,0,.644-.844c.195-.315.374-.638.537-.967v-9.139H351.5v11.041a7.968,7.968,0,0,0,.139,1.566q.136.673.23,1.411Z" transform="translate(99.786 2.956)" fill="#fff"/>
    <path id="Caminho_38" data-name="Caminho 38" d="M499.153,203.093h-1.542q-5,0-7.034,1.357a4.454,4.454,0,0,0-2.036,3.949,2.473,2.473,0,0,0,1.512,2.469,8.449,8.449,0,0,0,3.486.678,6.251,6.251,0,0,0,3.361-.863,7.97,7.97,0,0,0,2.252-2.038Zm1.48,13.018-1.047-2.837q-.557.553-1.357,1.2a12.661,12.661,0,0,1-1.729,1.173,11.764,11.764,0,0,1-2,.892,6.865,6.865,0,0,1-2.252.371q-5.43,0-8.207-2.065a7.167,7.167,0,0,1-2.776-6.139,10.925,10.925,0,0,1,.74-4.042,7.757,7.757,0,0,1,2.5-3.27,13.073,13.073,0,0,1,4.75-2.191,29.563,29.563,0,0,1,7.5-.8h2.343v-1.357a11.04,11.04,0,0,0-.123-1.635,3.59,3.59,0,0,0-.556-1.483,3.184,3.184,0,0,0-1.2-1.047,4.679,4.679,0,0,0-2.129-.4,20.783,20.783,0,0,0-5.616.74,27.954,27.954,0,0,0-4.688,1.726l-2.407-5.736a32.032,32.032,0,0,1,6.294-1.574,45.151,45.151,0,0,1,6.788-.526,15.631,15.631,0,0,1,4.288.556,9.779,9.779,0,0,1,3.364,1.667,7.676,7.676,0,0,1,2.22,2.808,9.224,9.224,0,0,1,.8,3.978v11.354a23.844,23.844,0,0,0,.4,3.978q.4,2.316.711,4.659ZM476.2,222.1a22.216,22.216,0,0,1-4.9-1.787,17.2,17.2,0,0,1-4.074-2.84,12.609,12.609,0,0,1-2.776-3.855,11.507,11.507,0,0,1-1.018-4.9V193.284H458.74v-5.429h4.689v-7.528H470.4v7.528H477v5.429h-6.6v15.978a5.168,5.168,0,0,0,2.068,4.5,16.2,16.2,0,0,0,5.583,2.346Zm-21.471-27.95a13.07,13.07,0,0,0-1.851-1.173,4.7,4.7,0,0,0-2.22-.553,3.233,3.233,0,0,0-2.191.831,8.637,8.637,0,0,0-1.667,1.974,15.165,15.165,0,0,0-1.173,2.284c-.307.761-.545,1.346-.708,1.758v16.844h-6.973v-21.9a19.269,19.269,0,0,0-.31-3.671c-.206-1.05-.347-1.923-.43-2.621h6.417l1.112,4.811a14.634,14.634,0,0,1,1.079-1.635,13.818,13.818,0,0,1,1.664-1.851,11.491,11.491,0,0,1,2.068-1.542,4.364,4.364,0,0,1,2.22-.649,10.937,10.937,0,0,1,2.963.339,12,12,0,0,1,2.407,1.018ZM424.374,199.7q-.244-4.011-2.1-5.616a6.732,6.732,0,0,0-4.566-1.6,6.534,6.534,0,0,0-1.883.307,4.814,4.814,0,0,0-1.881,1.111,6.985,6.985,0,0,0-1.512,2.191,9.206,9.206,0,0,0-.708,3.609Zm-12.647,5a9.13,9.13,0,0,0,2.126,5.215,6.063,6.063,0,0,0,4.659,1.819,15.925,15.925,0,0,0,4.288-.647,25.7,25.7,0,0,0,4.536-1.758l2.281,5.367a23.225,23.225,0,0,1-5.613,1.7,34.962,34.962,0,0,1-5.987.524,14.1,14.1,0,0,1-5.984-1.173,12.43,12.43,0,0,1-4.256-3.176,12.991,12.991,0,0,1-2.562-4.659,18.612,18.612,0,0,1-.834-5.613,23,23,0,0,1,.617-5.153,14.014,14.014,0,0,1,2.161-4.9,12.157,12.157,0,0,1,4.133-3.671,13.125,13.125,0,0,1,6.479-1.451,15.921,15.921,0,0,1,6.233,1.079,9.577,9.577,0,0,1,4.1,3.273,14.511,14.511,0,0,1,2.284,5.49,37.228,37.228,0,0,1,.711,7.742Zm-19.807-2.714a19.854,19.854,0,0,0-.462-4.689,8.238,8.238,0,0,0-1.266-2.931,4.191,4.191,0,0,0-1.849-1.48,6.177,6.177,0,0,0-2.223-.4,4.47,4.47,0,0,0-2.036.462,6.006,6.006,0,0,0-1.667,1.234,10.872,10.872,0,0,0-1.357,1.758c-.409.657-.8,1.314-1.173,1.974V207.6q1.851,3.947,5.431,3.948a7.322,7.322,0,0,0,2.5-.433,4.929,4.929,0,0,0,2.129-1.541,7.977,7.977,0,0,0,1.451-2.963,17.259,17.259,0,0,0,.524-4.627m7.157-.123a20.466,20.466,0,0,1-.8,5.768,14.647,14.647,0,0,1-2.375,4.814,11.329,11.329,0,0,1-3.949,3.27,12.076,12.076,0,0,1-5.522,1.2,7.225,7.225,0,0,1-2.375-.371,8.105,8.105,0,0,1-1.913-.924,8.413,8.413,0,0,1-1.421-1.17,6.2,6.2,0,0,1-.9-1.173l-1.109,2.837H372.3c.123-.823.227-1.574.307-2.252s.155-1.336.216-1.974.115-1.306.155-2.006.061-1.5.061-2.4v-31.9h6.973v16.043a16.54,16.54,0,0,1,3.022-3.086,6.855,6.855,0,0,1,4.381-1.419,11.12,11.12,0,0,1,5.37,1.2,10.155,10.155,0,0,1,3.609,3.238,14.272,14.272,0,0,1,2.036,4.689,23.719,23.719,0,0,1,.647,5.616m-41.769,1.234h-1.544q-5,0-7.031,1.357a4.45,4.45,0,0,0-2.038,3.949,2.473,2.473,0,0,0,1.512,2.469,8.467,8.467,0,0,0,3.487.678,6.26,6.26,0,0,0,3.363-.863,8.042,8.042,0,0,0,2.252-2.038Zm1.48,13.018-1.047-2.837a17.7,17.7,0,0,1-1.36,1.2,12.645,12.645,0,0,1-1.726,1.173,11.709,11.709,0,0,1-2.006.892,6.842,6.842,0,0,1-2.252.371q-5.43,0-8.2-2.065a7.169,7.169,0,0,1-2.778-6.139,10.975,10.975,0,0,1,.74-4.042,7.763,7.763,0,0,1,2.5-3.27,13.049,13.049,0,0,1,4.75-2.191,29.541,29.541,0,0,1,7.5-.8h2.346v-1.357a11.4,11.4,0,0,0-.123-1.635,3.588,3.588,0,0,0-.556-1.483,3.172,3.172,0,0,0-1.2-1.047,4.67,4.67,0,0,0-2.129-.4,20.776,20.776,0,0,0-5.613.74,27.949,27.949,0,0,0-4.689,1.726l-2.407-5.736a31.985,31.985,0,0,1,6.294-1.574,45.142,45.142,0,0,1,6.786-.526,15.631,15.631,0,0,1,4.288.556,9.754,9.754,0,0,1,3.364,1.667,7.645,7.645,0,0,1,2.22,2.808,9.224,9.224,0,0,1,.8,3.978v11.354a23.539,23.539,0,0,0,.4,3.978q.4,2.316.708,4.659Z" transform="translate(99.576 17.941)" fill="#fff"/>
    <path id="Caminho_39" data-name="Caminho 39" d="M365.1,208.036a12.965,12.965,0,0,0-.2-2.375,5.08,5.08,0,0,0-.684-1.817,3.377,3.377,0,0,0-1.271-1.165,4.207,4.207,0,0,0-1.972-.417,3.446,3.446,0,0,0-3.2,1.582,7.994,7.994,0,0,0-.964,4.192,12.8,12.8,0,0,0,.2,2.362,5.488,5.488,0,0,0,.681,1.875,3.511,3.511,0,0,0,1.274,1.245,4.022,4.022,0,0,0,2,.449,4.1,4.1,0,0,0,2-.435,3.34,3.34,0,0,0,1.274-1.226,5.334,5.334,0,0,0,.668-1.878,14.31,14.31,0,0,0,.184-2.391m2.113,0a13.059,13.059,0,0,1-.313,2.92,6.574,6.574,0,0,1-1.039,2.391,5.08,5.08,0,0,1-1.924,1.614,7.742,7.742,0,0,1-5.931,0,5.222,5.222,0,0,1-1.942-1.614,6.465,6.465,0,0,1-1.055-2.391,13.223,13.223,0,0,1-.31-2.92,12.369,12.369,0,0,1,.31-2.794,6.317,6.317,0,0,1,1.055-2.343,5.437,5.437,0,0,1,1.942-1.616,6.521,6.521,0,0,1,2.966-.6,6.936,6.936,0,0,1,2.979.574,4.879,4.879,0,0,1,1.926,1.568,6.417,6.417,0,0,1,1.023,2.343,12.712,12.712,0,0,1,.313,2.872m-18.1-2.733c-.126-.246-.281-.548-.465-.9a4.716,4.716,0,0,0-.716-.994,4.225,4.225,0,0,0-1.055-.807,2.988,2.988,0,0,0-1.459-.339,3.415,3.415,0,0,0-1.475.326,3.283,3.283,0,0,0-1.226,1.023,5.388,5.388,0,0,0-.839,1.817,10.121,10.121,0,0,0-.31,2.669,8.276,8.276,0,0,0,.946,4.349,3.4,3.4,0,0,0,3.12,1.52,3.842,3.842,0,0,0,3.478-2.172Zm.5,9.906-.465-1.678a5.145,5.145,0,0,1-1.445,1.384,3.953,3.953,0,0,1-2.25.636,6,6,0,0,1-2.826-.606,5,5,0,0,1-1.846-1.63,6.87,6.87,0,0,1-1.01-2.391,12.908,12.908,0,0,1-.31-2.888,10.892,10.892,0,0,1,.355-2.824,7.074,7.074,0,0,1,1.087-2.346,5.479,5.479,0,0,1,1.785-1.6,4.922,4.922,0,0,1,2.452-.59,3.9,3.9,0,0,1,1.32.216,4.458,4.458,0,0,1,1.1.574,5.111,5.111,0,0,1,.868.777,5.79,5.79,0,0,1,.622.823v-8.26h2.017v16.053q0,.681.016,1.194c.011.342.032.673.061.994s.067.652.11.994.083.729.123,1.165Z" transform="translate(99.652 50.093)" fill="#fff"/>
    <path id="Caminho_40" data-name="Caminho 40" d="M481.932,208.447a8.079,8.079,0,0,0-1.285-4.785,4.5,4.5,0,0,0-3.778-1.541,4.162,4.162,0,0,0-3.42,1.6,8.106,8.106,0,0,0-1.443,4.723Zm-9.885,2.017a12.8,12.8,0,0,0,.337,2.65,5.8,5.8,0,0,0,.927,2.094,4.479,4.479,0,0,0,1.6,1.365,5.237,5.237,0,0,0,2.391.494,10.206,10.206,0,0,0,2.867-.4,13.832,13.832,0,0,0,2.749-1.149l.791,2.137a13.326,13.326,0,0,1-3.3,1.066,18.862,18.862,0,0,1-3.42.318,7.635,7.635,0,0,1-3.518-.751,6.726,6.726,0,0,1-2.394-2.017,8.516,8.516,0,0,1-1.362-2.947,14.173,14.173,0,0,1-.435-3.577,15.978,15.978,0,0,1,.355-3.283,10.082,10.082,0,0,1,1.2-3.123,6.554,6.554,0,0,1,5.992-3.243,8.125,8.125,0,0,1,3.716.751,6.093,6.093,0,0,1,2.353,2.116,8.947,8.947,0,0,1,1.245,3.283,23.076,23.076,0,0,1,.355,4.21ZM467.3,220.942a9.194,9.194,0,0,1-4.964-2.391,6.034,6.034,0,0,1-1.64-4.331V202.557h-2.728V200.54H460.7v-4.627h2.57v4.627h4.152v2.017h-4.152v11.7a3.641,3.641,0,0,0,1.2,3.046,7.758,7.758,0,0,0,3.657,1.3Zm-11.7-7.194a4.873,4.873,0,0,1-.556,2.391,4.79,4.79,0,0,1-1.5,1.662,6.564,6.564,0,0,1-2.156.948,10.479,10.479,0,0,1-2.511.3,18.793,18.793,0,0,1-3.262-.3,12.984,12.984,0,0,1-2.944-.85l.908-2.175q.829.353,1.464.593c.419.158.831.289,1.226.4a9.535,9.535,0,0,0,1.224.238,12.4,12.4,0,0,0,1.464.078,4.379,4.379,0,0,0,2.925-.85,2.984,2.984,0,0,0,.988-2.394,2.073,2.073,0,0,0-.355-1.245,3.461,3.461,0,0,0-.93-.868,5.743,5.743,0,0,0-1.344-.633l-1.6-.534q-1.03-.357-2.078-.751a8.662,8.662,0,0,1-1.9-.988,4.947,4.947,0,0,1-1.384-1.445,3.908,3.908,0,0,1-.534-2.113,4.728,4.728,0,0,1,.574-2.412,4.516,4.516,0,0,1,1.5-1.582,6.481,6.481,0,0,1,2.116-.852,11.572,11.572,0,0,1,2.452-.257c.449,0,.876.021,1.285.059a8.989,8.989,0,0,1,1.266.219c.433.1.9.23,1.4.374s1.055.337,1.662.574l-.911,2.175c-.449-.211-.85-.4-1.205-.574a9.67,9.67,0,0,0-1.047-.433,6.918,6.918,0,0,0-1.09-.278,7.765,7.765,0,0,0-1.322-.1,5.444,5.444,0,0,0-2.829.673,2.449,2.449,0,0,0-1.127,2.292,1.608,1.608,0,0,0,.318,1.007,3.307,3.307,0,0,0,.831.753,5.368,5.368,0,0,0,1.205.572c.462.158.956.318,1.483.475q1.07.317,2.175.711a8.5,8.5,0,0,1,2.038,1.05,5.184,5.184,0,0,1,1.5,1.622,4.792,4.792,0,0,1,.574,2.471m-19.139-5.3a8.079,8.079,0,0,0-1.285-4.785,4.5,4.5,0,0,0-3.777-1.541,4.165,4.165,0,0,0-3.42,1.6,8.086,8.086,0,0,0-1.443,4.723Zm-9.885,2.017a12.82,12.82,0,0,0,.334,2.65,5.9,5.9,0,0,0,.93,2.094,4.48,4.48,0,0,0,1.6,1.365,5.238,5.238,0,0,0,2.391.494,10.205,10.205,0,0,0,2.867-.4,13.771,13.771,0,0,0,2.749-1.149l.791,2.137a13.327,13.327,0,0,1-3.3,1.066,18.861,18.861,0,0,1-3.42.318,7.636,7.636,0,0,1-3.518-.751,6.725,6.725,0,0,1-2.394-2.017,8.566,8.566,0,0,1-1.365-2.947,14.3,14.3,0,0,1-.433-3.577,15.974,15.974,0,0,1,.355-3.283,10.084,10.084,0,0,1,1.2-3.123,6.554,6.554,0,0,1,5.992-3.243,8.125,8.125,0,0,1,3.716.751,6.113,6.113,0,0,1,2.354,2.116,8.945,8.945,0,0,1,1.245,3.283,23.065,23.065,0,0,1,.355,4.21ZM416.688,206c-.157-.318-.355-.7-.59-1.149a5.914,5.914,0,0,0-.911-1.264,5.312,5.312,0,0,0-1.344-1.028,3.781,3.781,0,0,0-1.859-.435,4.415,4.415,0,0,0-1.878.414,4.164,4.164,0,0,0-1.56,1.306,6.814,6.814,0,0,0-1.069,2.314,12.762,12.762,0,0,0-.4,3.4,10.533,10.533,0,0,0,1.2,5.538,4.322,4.322,0,0,0,3.975,1.937,4.886,4.886,0,0,0,4.427-2.768Zm.633,12.612-.593-2.134a6.542,6.542,0,0,1-1.838,1.758,5.006,5.006,0,0,1-2.867.812,7.626,7.626,0,0,1-3.6-.772,6.387,6.387,0,0,1-2.351-2.076,8.764,8.764,0,0,1-1.288-3.043,16.678,16.678,0,0,1-.4-3.679,13.812,13.812,0,0,1,.457-3.6,8.97,8.97,0,0,1,1.384-2.984,6.99,6.99,0,0,1,2.273-2.038,6.3,6.3,0,0,1,3.123-.751,4.941,4.941,0,0,1,1.68.278,5.658,5.658,0,0,1,1.405.732,6.61,6.61,0,0,1,1.106.988,7.64,7.64,0,0,1,.791,1.047V192.632h2.57v20.443c0,.58.005,1.087.019,1.523s.04.855.08,1.264.086.831.139,1.266.1.93.158,1.483ZM401.11,203.15a3.811,3.811,0,0,0-1.266-.732,4.466,4.466,0,0,0-1.582-.3,2.112,2.112,0,0,0-1.461.574,6.389,6.389,0,0,0-1.127,1.362,11.7,11.7,0,0,0-.831,1.582c-.224.529-.4.935-.534,1.226V218.61h-2.57V204.574a17.324,17.324,0,0,0-.139-2.354c-.091-.673-.163-1.232-.216-1.68h2.252l.556,3.679a13.056,13.056,0,0,1,.692-1.189,10.167,10.167,0,0,1,1.047-1.362,6.541,6.541,0,0,1,1.3-1.109,2.83,2.83,0,0,1,1.544-.454,6.083,6.083,0,0,1,1.956.278,5.552,5.552,0,0,1,1.285.593Zm-16.686,6.326a16.418,16.418,0,0,0-.256-3.024,6.4,6.4,0,0,0-.871-2.314,4.267,4.267,0,0,0-1.622-1.483,5.294,5.294,0,0,0-2.511-.534,4.391,4.391,0,0,0-4.072,2.017,10.187,10.187,0,0,0-1.226,5.338,16.53,16.53,0,0,0,.256,3.005,7.075,7.075,0,0,0,.871,2.391,4.424,4.424,0,0,0,1.622,1.582,5.1,5.1,0,0,0,2.549.574,5.26,5.26,0,0,0,2.551-.553,4.272,4.272,0,0,0,1.622-1.563,6.757,6.757,0,0,0,.85-2.391,18.171,18.171,0,0,0,.238-3.046m2.688,0a16.692,16.692,0,0,1-.4,3.716,8.367,8.367,0,0,1-1.322,3.046,6.464,6.464,0,0,1-2.452,2.057,9.873,9.873,0,0,1-7.552,0,6.628,6.628,0,0,1-2.471-2.057,8.178,8.178,0,0,1-1.344-3.046,16.685,16.685,0,0,1-.4-3.716,15.6,15.6,0,0,1,.4-3.559,8,8,0,0,1,1.344-2.987,6.881,6.881,0,0,1,2.471-2.054,8.283,8.283,0,0,1,3.775-.772,8.8,8.8,0,0,1,3.8.732,6.27,6.27,0,0,1,2.452,2,8.184,8.184,0,0,1,1.3,2.987,16.23,16.23,0,0,1,.4,3.657m-23.13,9.134V207.382a13.541,13.541,0,0,0-.139-1.98,4.758,4.758,0,0,0-.553-1.678,3.009,3.009,0,0,0-1.208-1.167,4.321,4.321,0,0,0-2.094-.435,3.661,3.661,0,0,0-1.662.377,5.648,5.648,0,0,0-1.344.927,6,6,0,0,0-1.007,1.226,7.654,7.654,0,0,0-.655,1.306V218.61h-2.57V204.376a12,12,0,0,0-.136-1.958c-.093-.54-.166-1.167-.219-1.878h2.255l.553,2.688q.277-.317.713-.85a6.655,6.655,0,0,1,1.066-1.029,7.129,7.129,0,0,1,1.464-.868,4.543,4.543,0,0,1,1.9-.377,7.357,7.357,0,0,1,3.005.534,4.733,4.733,0,0,1,1.9,1.483,5.86,5.86,0,0,1,1.01,2.255,12.815,12.815,0,0,1,.3,2.845V218.61Z" transform="translate(121.274 46.454)" fill="#fff"/>
  </g>
</svg>
