<svg xmlns="http://www.w3.org/2000/svg" width="1921" height="383" viewBox="0 0 1921 383">
  <path id="Caminho_4284" data-name="Caminho 4284" d="M2446.78-4509.2c32.693,5.4,64.884,9.455,95.773,12.048,32.188,2.6,64.477,3.924,96.2,3.942,32.99-.036,64.97-1.456,95.363-4.264,28.033-2.385,57.05-6.21,85.534-11.279l6.051-.936c41.19-6.87,78.545-12.9,100.569-16.324q49.337-7.754,100.736-14.714c34.564-4.642,68.859-8.891,102.18-12.273,33.283-3.442,67.519-6.2,101.946-8.171,35.661-2.091,70.606-3.135,103.659-3.206,31.761.08,61.111.933,89.361,2.723,2.45.177,4.991.223,7.469.3l5.472.36c32.017,2.289,65.142,5.987,97.637,11.172,33.2,5.281,65.34,11.876,95.93,19.905,14.445,3.8,25.516,6.635,31.863,8.129.833.186,1.632.309,2.5.555,10.52,2.577,18.017,4.243,23.725,5.606,4.584,1.1,12.75,2.794,23.283,4.959l33,6.526c13.562,2.507,24.144,4.319,32.639,5.591,1.15.171,2.3.342,3.352.486l4.378.726c8.022,1.292,13.548,2.189,16.515,2.565l5.811.82c6.61.943,13.947,1.886,22.111,2.856,2.2.314,4.5.5,6.692.654,8.323.961,15.206,1.671,20.879,2.244,19.723,1.915,39.836,3.37,59.862,4.223,19.927.829,39.29,1.079,58.349.93,21.173-.432,40.012-1.27,58.6-2.7,18.907-1.442,37.468-3.5,56.038-6.135,18.851-2.708,36.888-5.855,53.578-9.386,16.2-3.434,32.285-7.51,48.161-12.1L4193-4866H2273l-1,312.045q42.034,14.884,85.213,25.933C2386.411-4520.6,2416.483-4514.228,2446.78-4509.2Z" transform="translate(-2272 4866)" fill="#5e8402"/>
</svg>
